<svg xmlns="http://www.w3.org/2000/svg" viewBox="0 0 1334 620" font-family="'Inter Tight', Inter, 'Segoe UI', system-ui, sans-serif">
  <defs>
    <filter id="cardShadow" x="-20%" y="-20%" width="140%" height="160%"><feDropShadow dx="0" dy="6" stdDeviation="10" flood-color="#000000" flood-opacity="0.28"/></filter>
    <clipPath id="barClip"><rect x="200" y="298" width="800" height="24" rx="12"/></clipPath>
    <marker id="ao" markerWidth="5" markerHeight="5" refX="2.5" refY="2.5" orient="auto"><path d="M0,0 L5,2.5 L0,5 Z" fill="#F97316"/></marker>
    <marker id="ab" markerWidth="5" markerHeight="5" refX="2.5" refY="2.5" orient="auto"><path d="M0,0 L5,2.5 L0,5 Z" fill="#3B82F6"/></marker>
    <marker id="ay" markerWidth="5" markerHeight="5" refX="2.5" refY="2.5" orient="auto"><path d="M0,0 L5,2.5 L0,5 Z" fill="#EAB308"/></marker>
    <marker id="ap" markerWidth="5" markerHeight="5" refX="2.5" refY="2.5" orient="auto"><path d="M0,0 L5,2.5 L0,5 Z" fill="#EC4899"/></marker>
    <marker id="av" markerWidth="5" markerHeight="5" refX="2.5" refY="2.5" orient="auto"><path d="M0,0 L5,2.5 L0,5 Z" fill="#A855F7"/></marker>
  </defs>
  <g filter="url(#cardShadow)"><rect x="40" y="250" width="1236" height="120" rx="20" fill="#1E293B"/></g>
  <rect x="40" y="250" width="1236" height="120" rx="20" fill="none" stroke="#334155" stroke-width="1.5"/>
  <text x="72" y="304" fill="#F8FAFC" font-size="40" font-weight="800" letter-spacing="-1">100%</text>
  <text x="74" y="328" fill="#64748B" font-size="13" font-weight="700" letter-spacing="1.5">ENERGÍA ADQUIRIDA</text>
  <g clip-path="url(#barClip)">
    <rect x="200" y="298" width="72" height="24" fill="#F97316"/><rect x="272" y="298" width="72" height="24" fill="#3B82F6"/><rect x="344" y="298" width="72" height="24" fill="#EAB308"/><rect x="416" y="298" width="72" height="24" fill="#EC4899"/><rect x="488" y="298" width="72" height="24" fill="#A855F7"/><rect x="560" y="298" width="440" height="24" fill="#10B981"/>
  </g>
  <g font-size="13" font-weight="800" fill="#0F172A" text-anchor="middle"><text x="236" y="315">1</text><text x="308" y="315">2</text><text x="380" y="315">3</text><text x="452" y="315">4</text><text x="524" y="315">5</text></g>
  <g font-size="17" font-weight="700" fill="#FFFFFF" fill-opacity="0.55" text-anchor="middle"><text x="735" y="316">›</text><text x="780" y="316">›</text><text x="825" y="316">›</text></g>
  <path d="M1000,310 L1026,310" stroke="#10B981" stroke-width="10"/>
  <g filter="url(#cardShadow)"><circle cx="1064" cy="310" r="40" fill="#0F172A"/></g>
  <circle cx="1064" cy="310" r="40" fill="none" stroke="#10B981" stroke-width="2.5"/><text x="1064" y="322" fill="#10B981" font-size="30" text-anchor="middle" font-weight="300">⟳</text>
  <text x="1118" y="305" fill="#F8FAFC" font-size="19" font-weight="700">Trabajo Útil</text><text x="1118" y="326" fill="#64748B" font-size="13" font-weight="600">Salida efectiva</text>
  <g stroke-width="2.5" fill="none" stroke-linecap="round" stroke-linejoin="round"><path d="M237,296 L237,176" stroke="#F97316" marker-end="url(#ao)"/><path d="M308,324 L308,396 L410,396 L410,446" stroke="#3B82F6" marker-end="url(#ab)"/><path d="M380,296 L380,196 L660,196 L660,176" stroke="#EAB308" marker-end="url(#ay)"/><path d="M452,324 L452,418 L895,418 L895,446" stroke="#EC4899" marker-end="url(#ap)"/><path d="M524,296 L524,222 L1089,222 L1089,176" stroke="#A855F7" marker-end="url(#av)"/></g>
  <g filter="url(#cardShadow)"><rect x="58" y="40" width="360" height="118" rx="14" fill="#1E293B"/><rect x="58" y="40" width="6" height="118" rx="3" fill="#F97316"/><rect x="86" y="60" width="34" height="34" rx="9" fill="#F97316"/><text x="103" y="84" fill="#0F172A" font-size="18" text-anchor="middle" font-weight="800">1</text><text x="134" y="72" fill="#F97316" font-size="13" font-weight="700" letter-spacing="0.5">PÉRDIDA EFECTIVA · CALOR</text><text x="134" y="93" fill="#F8FAFC" font-size="16" font-weight="700">Disipación térmica</text><text x="86" y="122" fill="#94A3B8" font-size="14">Ineficiencia térmica disipada en los</text><text x="86" y="141" fill="#94A3B8" font-size="14">conductores por calentamiento físico.</text></g>
  <g filter="url(#cardShadow)"><rect x="480" y="40" width="360" height="118" rx="14" fill="#1E293B"/><rect x="480" y="40" width="6" height="118" rx="3" fill="#EAB308"/><rect x="508" y="60" width="34" height="34" rx="9" fill="#EAB308"/><text x="525" y="84" fill="#0F172A" font-size="18" text-anchor="middle" font-weight="800">3</text><text x="556" y="72" fill="#EAB308" font-size="13" font-weight="700" letter-spacing="0.5">DESBALANCE · FRICCIÓN</text><text x="556" y="93" fill="#F8FAFC" font-size="16" font-weight="700">Secuencia inversa</text><text x="508" y="122" fill="#94A3B8" font-size="14">Fases fuera de sincronía que inyectan</text><text x="508" y="141" fill="#94A3B8" font-size="14">secuencia inversa, frenando motores.</text></g>
  <g filter="url(#cardShadow)"><rect x="902" y="40" width="374" height="118" rx="14" fill="#1E293B"/><rect x="902" y="40" width="6" height="118" rx="3" fill="#A855F7"/><rect x="930" y="60" width="34" height="34" rx="9" fill="#A855F7"/><text x="947" y="84" fill="#0F172A" font-size="18" text-anchor="middle" font-weight="800">5</text><text x="978" y="72" fill="#A855F7" font-size="13" font-weight="700" letter-spacing="0.5">PÉRDIDAS EN EL NEUTRO</text><text x="978" y="93" fill="#F8FAFC" font-size="16" font-weight="700">Secuencia cero</text><text x="930" y="122" fill="#94A3B8" font-size="14">Corrientes de secuencia cero que se</text><text x="930" y="141" fill="#94A3B8" font-size="14">acumulan y provocan sobrecalentamiento.</text></g>
  <g filter="url(#cardShadow)"><rect x="230" y="462" width="360" height="118" rx="14" fill="#1E293B"/><rect x="230" y="462" width="6" height="118" rx="3" fill="#3B82F6"/><rect x="258" y="482" width="34" height="34" rx="9" fill="#3B82F6"/><text x="275" y="506" fill="#0F172A" font-size="18" text-anchor="middle" font-weight="800">2</text><text x="306" y="494" fill="#3B82F6" font-size="13" font-weight="700" letter-spacing="0.5">PÉRDIDA REACTIVA · ESPACIO</text><text x="306" y="515" fill="#F8FAFC" font-size="16" font-weight="700">Potencia magnetizante</text><text x="258" y="544" fill="#94A3B8" font-size="14">Ocupa capacidad del sistema sin</text><text x="258" y="563" fill="#94A3B8" font-size="14">ejercer trabajo útil.</text></g>
  <g filter="url(#cardShadow)"><rect x="715" y="462" width="360" height="118" rx="14" fill="#1E293B"/><rect x="715" y="462" width="6" height="118" rx="3" fill="#EC4899"/><rect x="743" y="482" width="34" height="34" rx="9" fill="#EC4899"/><text x="760" y="506" fill="#0F172A" font-size="18" text-anchor="middle" font-weight="800">4</text><text x="791" y="494" fill="#EC4899" font-size="13" font-weight="700" letter-spacing="0.5">DISTORSIÓN ARMÓNICA · CAOS</text><text x="791" y="515" fill="#F8FAFC" font-size="16" font-weight="700">Frecuencias múltiples</text><text x="743" y="544" fill="#94A3B8" font-size="14">Deforman la onda y generan</text><text x="743" y="563" fill="#94A3B8" font-size="14">desgaste prematuro.</text></g>
</svg>
